<svg xmlns="http://www.w3.org/2000/svg" viewBox="0 0 512 512">
  <rect width="512" height="512" rx="100" fill="#f5f5f5"/>
  <g transform="translate(100, 120) scale(1.3)">
    <path d="M160 88v240c0 17.7-21.4 26.6-34 14.1L72.9 289.8C70.3 287.3 66.8 286 63.2 286H32c-17.7 0-32-14.3-32-32V162c0-17.7 14.3-32 32-32h31.2c3.6 0 7.1-1.3 9.6-3.8l53.2-52.3C139.6 60.4 160 70.3 160 88z" fill="#8a8a8a"/>
    <path d="M192 144c0-8.8 7.2-16 16-16s16 7.2 16 16v128c0 8.8-7.2 16-16 16s-16-7.2-16-16V144z" fill="#8a8a8a"/>
    <path d="M256 112c0-8.8 7.2-16 16-16s16 7.2 16 16v192c0 8.8-7.2 16-16 16s-16-7.2-16-16V112z" fill="#8a8a8a"/>
  </g>
</svg>
